<?xml version="1.0" encoding="UTF-8" standalone="no"?>
<!-- Generator: Adobe Illustrator 15.1.0, SVG Export Plug-In . SVG Version: 6.00 Build 0)  -->

<svg
   xmlns:dc="http://purl.org/dc/elements/1.1/"
   xmlns:cc="http://creativecommons.org/ns#"
   xmlns:rdf="http://www.w3.org/1999/02/22-rdf-syntax-ns#"
   xmlns:svg="http://www.w3.org/2000/svg"
   xmlns="http://www.w3.org/2000/svg"
   xmlns:xlink="http://www.w3.org/1999/xlink"
   xmlns:sodipodi="http://sodipodi.sourceforge.net/DTD/sodipodi-0.dtd"
   xmlns:inkscape="http://www.inkscape.org/namespaces/inkscape"
   version="1.0"
   id="svg3108"
   sodipodi:version="0.32"
   inkscape:version="0.92.3 (2405546, 2018-03-11)"
   sodipodi:docname="albania.svg"
   inkscape:output_extension="org.inkscape.output.svg.inkscape"
   x="0px"
   y="0px"
   width="1047.1766"
   height="1355.5228"
   viewBox="4.752 -0.403 1047.1767 1355.5228"
   enable-background="new 4.752 -0.403 688.029 1002.39"
   xml:space="preserve"><metadata
   id="metadata1264"><rdf:RDF><cc:Work
       rdf:about=""><dc:format>image/svg+xml</dc:format><dc:type
         rdf:resource="http://purl.org/dc/dcmitype/StillImage" /><dc:title></dc:title></cc:Work></rdf:RDF></metadata><defs
   id="defs1262"><filter
     inkscape:collect="always"
     style="color-interpolation-filters:sRGB"
     id="filter2278"
     x="-0.046675488"
     width="1.093351"
     y="-0.052757055"
     height="1.105514"><feGaussianBlur
       inkscape:collect="always"
       stdDeviation="8.6582098"
       id="feGaussianBlur2280" /></filter><filter
     inkscape:collect="always"
     style="color-interpolation-filters:sRGB"
     id="filter2282"
     x="-0.074244253"
     width="1.1484885"
     y="-0.048173912"
     height="1.0963478"><feGaussianBlur
       inkscape:collect="always"
       stdDeviation="8.6582098"
       id="feGaussianBlur2284" /></filter><filter
     inkscape:collect="always"
     style="color-interpolation-filters:sRGB"
     id="filter2286"
     x="-0.036826514"
     width="1.073653"
     y="-0.061774835"
     height="1.1235497"><feGaussianBlur
       inkscape:collect="always"
       stdDeviation="8.6582098"
       id="feGaussianBlur2288" /></filter><filter
     inkscape:collect="always"
     style="color-interpolation-filters:sRGB"
     id="filter2290"
     x="-0.073117904"
     width="1.1462358"
     y="-0.33143869"
     height="1.6628774"><feGaussianBlur
       inkscape:collect="always"
       stdDeviation="8.6582098"
       id="feGaussianBlur2292" /></filter><filter
     inkscape:collect="always"
     style="color-interpolation-filters:sRGB"
     id="filter2294"
     x="-0.037369516"
     width="1.074739"
     y="-0.064888924"
     height="1.1297778"><feGaussianBlur
       inkscape:collect="always"
       stdDeviation="8.6582098"
       id="feGaussianBlur2296" /></filter><filter
     inkscape:collect="always"
     style="color-interpolation-filters:sRGB"
     id="filter2298"
     x="-0.078608163"
     width="1.1572163"
     y="-0.2128856"
     height="1.4257712"><feGaussianBlur
       inkscape:collect="always"
       stdDeviation="8.6582098"
       id="feGaussianBlur2300" /></filter><filter
     inkscape:collect="always"
     style="color-interpolation-filters:sRGB"
     id="filter2302"
     x="-0.059325028"
     width="1.1186501"
     y="-0.12691739"
     height="1.2538348"><feGaussianBlur
       inkscape:collect="always"
       stdDeviation="8.6582098"
       id="feGaussianBlur2304" /></filter><filter
     inkscape:collect="always"
     style="color-interpolation-filters:sRGB"
     id="filter2306"
     x="-0.11359565"
     width="1.2271913"
     y="-0.10231102"
     height="1.204622"><feGaussianBlur
       inkscape:collect="always"
       stdDeviation="8.6582098"
       id="feGaussianBlur2308" /></filter></defs><sodipodi:namedview
   pagecolor="#ffffff"
   bordercolor="#666666"
   borderopacity="1"
   objecttolerance="10"
   gridtolerance="10"
   guidetolerance="10"
   inkscape:pageopacity="0"
   inkscape:pageshadow="2"
   inkscape:window-width="2560"
   inkscape:window-height="1411"
   id="namedview1260"
   showgrid="false"
   inkscape:zoom="0.66591725"
   inkscape:cx="-211.16705"
   inkscape:cy="297.68803"
   inkscape:window-x="2560"
   inkscape:window-y="0"
   inkscape:window-maximized="1"
   inkscape:current-layer="layer16"
   fit-margin-left="-0.5"
   fit-margin-top="0"
   fit-margin-right="0"
   fit-margin-bottom="0" />

<g
   inkscape:groupmode="layer"
   id="layer16"
   inkscape:label="bg"
   transform="translate(-1.5016874,-0.27561251)"
   style="display:inline"><rect
     style="color:#000000;clip-rule:nonzero;display:inline;overflow:visible;visibility:visible;opacity:1;isolation:auto;mix-blend-mode:normal;color-interpolation:sRGB;color-interpolation-filters:linearRGB;solid-color:#000000;solid-opacity:1;vector-effect:none;fill:#ffffff;fill-opacity:1;fill-rule:nonzero;stroke:#000000;stroke-width:2;stroke-linecap:butt;stroke-linejoin:miter;stroke-miterlimit:4;stroke-dasharray:none;stroke-dashoffset:0;stroke-opacity:1;paint-order:normal;color-rendering:auto;image-rendering:auto;shape-rendering:auto;text-rendering:auto;enable-background:accumulate"
     id="rect2346"
     width="1046.6766"
     height="1354.5228"
     x="6.2536874"
     y="0.37261251" /></g><g
   inkscape:groupmode="layer"
   id="layer9"
   inkscape:label="mathoshi"
   style="display:none;opacity:0.40700001"
   transform="translate(25.647571,320.31027)"><image
     sodipodi:absref="/home/snordhoff/versioning/git/langsci/books/enke/5f7f11433413410001569073/chapters/graphics/matoshi5.png"
     xlink:href="matoshi5.png"
     y="-125.00754"
     x="5.4772172"
     id="image2170"
     style="image-rendering:optimizeQuality"
     preserveAspectRatio="none"
     height="1181.329"
     width="931.68872" /></g><g
   inkscape:groupmode="layer"
   id="layer12"
   inkscape:label="countries"
   style="display:inline"
   transform="translate(25.647571,320.31027)"><path
     style="fill:#ffffff;fill-opacity:1;fill-rule:evenodd;stroke:#000000;stroke-width:2;stroke-linecap:butt;stroke-linejoin:miter;stroke-miterlimit:4;stroke-dasharray:16, 16;stroke-dashoffset:0;stroke-opacity:1"
     d="M -22.278386,73.943777 C -5.759817,86.958408 8.1702488,121.77195 27.277321,112.98767 38.202026,107.96515 24.871979,88.318608 28.779009,76.947153 34.375743,60.657795 59.424848,52.11302 58.812771,34.899886 58.143172,16.069076 24.694985,10.095288 22.772257,-8.6490683 21.789754,-18.227325 29.521566,-27.327136 36.28745,-34.177766 c 8.814618,-8.925026 26.047133,-7.60424 33.037138,-18.020257 2.525833,-3.763819 1.646746,-8.984727 1.501688,-13.515193 -0.276531,-8.636626 -6.23545,-17.062674 -4.505064,-25.528697 2.752457,-13.466567 9.236017,-31.028997 22.525321,-34.538827 16.883477,-4.45909 29.093397,23.67918 46.552327,24.02701 8.28414,0.16504 16.1792,-5.18444 22.52532,-10.51182 4.67979,-3.92854 8.51639,-9.24175 10.51182,-15.01688 20.95571,-60.64949 -52.99844,-183.05375 10.51182,-192.21607 72.55185,-10.46671 29.46234,148.69479 73.58271,207.23295 10.36698,13.754726 27.05893,21.547513 42.04727,30.033765 21.84906,12.37073 47.47112,17.244145 69.07765,30.033762 16.88755,9.996297 29.93829,25.595937 46.55233,36.040514 9.47596,5.957156 20.02251,10.0112541 30.03377,15.0168812"
     id="path2234"
     inkscape:connector-curvature="0"
     sodipodi:nodetypes="caaaaaaaaaaaaaaaaac" /><path
     style="fill:none;fill-rule:evenodd;stroke:#000000;stroke-width:2;stroke-linecap:butt;stroke-linejoin:miter;stroke-miterlimit:4;stroke-dasharray:16, 16;stroke-dashoffset:0;stroke-opacity:1"
     d="m 231.5069,291.68855 c 0.50056,-28.53207 -1.02696,-57.17201 1.50169,-85.59622 1.39279,-15.65616 1.43149,-32.05661 7.50844,-46.55233 8.16731,-19.48199 26.26891,-33.19219 37.5422,-51.0574 8.48524,-13.446886 6.64345,-41.282808 22.52532,-42.047264 16.22446,-0.780946 13.75291,31.188682 27.03039,40.545574 8.43521,5.94445 20.24689,10.7805 30.03376,7.50844 12.82658,-4.28832 12.05668,-30.345587 25.5287,-31.535445 29.69207,-2.622425 44.97379,39.132925 67.57596,58.565835 16.96172,14.58336 44.23759,22.24486 51.0574,43.54896 6.29227,19.65615 -15.08614,39.42891 -15.01688,60.06752 0.0607,18.08954 10.10591,34.79361 13.51519,52.55908 3.70933,19.32903 15.30401,40.49377 7.50844,58.56584 -5.39335,12.50314 -29.71951,10.82057 -33.03714,24.02701 -3.92737,15.6336 16.32431,28.1298 21.02363,43.54895 3.09565,10.15728 0.84496,21.56766 4.50507,31.53545 5.50506,14.99225 16.76304,27.19506 25.5287,40.54558 6.32483,9.63301 10.94712,20.83332 19.52194,28.53207 17.33071,15.56006 47.50185,14.47432 61.56921,33.03714 5.57472,7.35622 4.72244,17.89026 6.00676,27.03039 2.30274,16.38788 7.11995,33.527 3.00337,49.5557 -2.79816,10.89517 -8.02193,23.37769 -18.02026,28.53208 -8.0209,4.13498 -19.01236,-5.64226 -27.03038,-1.50169 -14.19055,7.32812 -19.66477,25.69003 -25.5287,40.54558 -4.86602,12.32747 1.38781,29.22038 -7.50844,39.04389 -12.97003,14.32191 -36.83638,11.75698 -55.56246,16.51857 -16.36534,4.16131 -37.31149,-1.1166 -49.55571,10.51181 -5.63467,5.35128 -3.9489,15.03193 -6.00675,22.52532 -6.33647,23.07348 -14.12196,45.76722 -19.52194,69.07766 -2.526,10.90416 3.78782,27.61977 -6.00675,33.03713 -4.7177,2.60935 -9.82507,-4.55405 -15.01689,-6.00675 -2.93218,-0.82044 -6.25131,-0.21337 -9.01012,-1.50169 -4.18149,-1.95269 -7.00788,-6.00675 -10.51182,-9.01012"
     id="path2236"
     inkscape:connector-curvature="0"
     sodipodi:nodetypes="caaaaaaaaaaaaaaaaaaaaaaaaaaaaaaac" /><path
     style="fill:none;fill-rule:evenodd;stroke:#000000;stroke-width:2;stroke-linecap:butt;stroke-linejoin:miter;stroke-miterlimit:4;stroke-dasharray:16, 16;stroke-dashoffset:0;stroke-opacity:1"
     d="m 372.66558,96.469098 c 1.50169,-24.527572 -13.1518,-56.492018 4.50507,-73.582716 12.59361,-12.189798 37.91167,8.123463 52.55908,-1.501689 6.92454,-4.550275 3.28756,-18.4676967 10.51182,-22.5253208 11.85622,-6.6592391 27.36516,7.850539 40.54557,4.5050642 13.59364,-3.45036098 29.75126,-10.8447804 34.53883,-24.0270094 3.89657,-10.728912 -5.99511,-22.02794 -9.01013,-33.037138 -5.48502,-20.028316 -26.75986,-42.002776 -16.51857,-60.067519 4.61187,-8.13494 17.91892,-9.61263 27.03039,-7.50844 22.80346,5.2662 36.09128,29.922769 52.55908,46.552326 17.72671,17.900833 32.90664,38.156886 49.55571,57.064147 12.41732,14.1015384 22.49551,30.7938 37.5422,42.047267 8.42745,6.302922 18.38586,10.721746 28.53207,13.515192 10.18058,2.80291 20.97616,2.960013 31.53545,3.003377 11.55629,0.04746 27.68078,-12.304839 34.53883,-3.003377 8.66058,11.746191 -8.04595,28.663104 -16.51857,40.545579 -6.17842,8.664962 -18.86953,11.714773 -24.02701,21.023633 -7.6174,13.748826 -1.69956,31.947116 -7.50844,46.552326 -5.59277,14.06185 -14.87276,26.79672 -25.5287,37.54221 -11.14599,11.23965 -23.27398,25.66178 -39.04389,27.03038 -14.28026,1.23932 -24.97745,-15.26402 -39.04389,-18.02025 -10.81803,-2.11973 -22.82463,-2.64894 -33.03714,1.50168 -11.16801,4.53896 -20.58631,13.83876 -27.03038,24.02701 -6.68938,10.57611 -5.73594,24.47363 -10.51182,36.04052 -2.39366,5.79731 -4.60415,12.05475 -9.01013,16.51857 -6.45517,6.53992 -16.01801,9.01013 -24.02701,13.51519"
     id="path2238"
     inkscape:connector-curvature="0"
     sodipodi:nodetypes="caaaaaaaaaaaaaaaaaaaaaaaac" /><path
     style="fill:none;fill-rule:evenodd;stroke:#000000;stroke-width:2;stroke-linecap:butt;stroke-linejoin:miter;stroke-miterlimit:4;stroke-dasharray:16, 16;stroke-dashoffset:0;stroke-opacity:1"
     d="m 703.03696,146.0248 c 0,0 26.84451,8.60628 40.54558,7.50845 22.25288,-1.78306 41.46346,-16.91389 63.0709,-22.52533 17.68227,-4.59207 36.49187,-14.01847 54.06077,-9.01012 26.26528,7.48741 40.36728,36.84437 61.56921,54.06077 11.65755,9.46617 22.76333,20.01448 36.04052,27.03038 100.06946,52.87846 321.36126,109.62323 321.36126,109.62323"
     id="path2240"
     inkscape:connector-curvature="0"
     sodipodi:nodetypes="caaaaac" /><path
     style="fill:none;fill-rule:evenodd;stroke:#000000;stroke-width:2;stroke-linecap:butt;stroke-linejoin:miter;stroke-miterlimit:4;stroke-dasharray:16, 16;stroke-dashoffset:0;stroke-opacity:1"
     d="m 606.92892,557.48734 c 16.51857,-4.50506 32.52433,-11.75714 49.55571,-13.51519 32.92282,-3.39843 66.29556,10.31734 99.11141,6.00675 6.27775,-0.82463 12.74071,-2.51155 18.02026,-6.00675 18.92554,-12.52922 28.37643,-35.65842 45.05064,-51.0574 12.87069,-11.88634 25.3533,-26.22028 42.04727,-31.53545 17.65436,-5.62094 37.17016,-0.73317 55.56246,1.50169 27.97286,3.399 54.84546,13.10937 82.59284,18.02026 32.83259,5.8109 99.11139,13.51519 99.11139,13.51519"
     id="path2242"
     inkscape:connector-curvature="0"
     sodipodi:nodetypes="caaaaaaac" /><path
     style="fill:none;fill-rule:evenodd;stroke:#000000;stroke-width:2;stroke-linecap:butt;stroke-linejoin:miter;stroke-miterlimit:4;stroke-dasharray:16, 16;stroke-dashoffset:0;stroke-opacity:1"
     d="m 880.23615,123.49948 c 0,0 23.43606,-18.30736 28.53208,-31.535446 6.11819,-15.881393 -0.53107,-34.046551 0,-51.057395 0.50081,-16.041445 -4.73659,-33.994441 3.00337,-48.0540192 17.28687,-31.4014528 57.34161,-43.0846578 87.09791,-63.0708998 72.41239,-48.63683 148.16659,-92.10353 222.24989,-138.1553"
     id="path2244"
     inkscape:connector-curvature="0"
     sodipodi:nodetypes="caaaac" /></g><g
   inkscape:groupmode="layer"
   id="layer13"
   inkscape:label="coast"
   style="display:inline"
   transform="translate(25.647571,320.31027)"><path
     style="fill:#83cff1;fill-opacity:1;fill-rule:evenodd;stroke:#000000;stroke-width:1px;stroke-linecap:butt;stroke-linejoin:miter;stroke-opacity:1"
     d="m 248.97838,681.30716 c -11.99779,1.60393 -26.07591,-6.63847 -32.91747,-3.18556 -8.22176,4.14949 -3.28291,18.6705 -1.06185,27.6082 2.46703,9.92749 8.14033,19.33636 15.39688,26.54634 11.13374,11.0623 27.62497,14.95826 40.88137,23.36079 18.24607,11.56522 39.51775,20.36028 53.09269,37.16488 14.65441,18.1409 19.39776,44.13612 24.42264,64.77308 0.82895,3.40447 6.35693,4.09836 7.43298,7.43298 1.16021,3.59544 -3.72768,7.92726 -1.81822,11.1872 3.37304,5.75865 14.19392,2.04241 18.80788,6.86432 4.87573,5.09548 4.45315,13.38861 6.37112,20.17522 1.98446,7.02186 0.824,15.48147 5.30927,21.23708 6.91098,8.86833 24.52917,5.96083 29.73191,15.9278 3.38573,6.48609 -0.56557,17.09512 -2.55802,21.80021 -2.07791,4.90692 8.17894,11.09728 12.94378,11.9177 48.08426,8.27931 52.25971,27.1903 60.09426,40.927 1.59973,2.8048 -1.86464,11.51 0.99177,13.108 8.75166,4.896 23.48321,-4.1172 25.15691,-2.8046 2.50668,1.9658 4.55741,-5.2991 6.00675,-8.4304 3.84335,-8.3037 -2.3969,-27.17774 6.73549,-26.61078 23.89412,1.48339 43.92184,24.04088 56.27826,39.28858 12.0152,15.1292 1.01825,25.8729 -13.8041,25.4845 -4.80665,-1.2593 -7.43161,-4.2978 -10.61854,-10.6185 -20.54853,-18.815 -46.74868,-9.3888 -53.35285,9.9412 -3.77883,11.0604 1.53739,22.6714 -0.8017,25.0999 -148.22024,136.3544 -467.07726,145.3908 -604.19483,-2.1237 -229.00051,-246.36452 -245.67825,-890.7411 70.082356,-1006.637394 19.032803,-6.985771 26.8815833,30.577594 42.474153,43.536004 4.501648,3.74115 8.751286,9.97458 14.60049,9.75578 10.440843,-0.39055 15.377908,-14.57073 24.688102,-19.31246 9.184615,-4.67777 21.133371,-14.178484 29.731907,-8.494833 7.141748,4.720713 7.390946,18.027653 3.185562,25.484493 -3.628992,6.4348 -13.277297,6.56103 -20.241589,9.02576 -5.093994,1.80281 -14.069001,-0.9823 -15.662344,4.18104 -1.059165,3.43231 0.235708,10.13411 7.034781,8.16301 12.350422,-3.58047 11.711922,10.11617 12.13994,20.9761 0.05858,1.48626 2.06577,2.13589 3.256941,3.04834 9.650827,7.39264 23.987237,6.68924 33.647491,14.06956 18.18668,13.8944 27.2116,36.86591 42.20869,54.15455 10.24979,11.81595 19.92083,24.77885 32.56645,33.78608 31.32558,18.40237 61.61837,36.07778 89.55456,57.72106 8.37086,37.9992 -16.96499,35.16335 -27.08123,45.52555 -6.76459,6.11231 -8.48688,17.02616 -3.45489,22.24538 5.46007,5.66323 -0.26863,11.38898 -4.43512,17.35956 -2.02153,2.89686 -8.05203,2.76777 -7.62622,9.97441 0.16029,2.71278 8.86113,18.06546 9.9136,20.60917 2.22832,5.38561 1.19488,11.88521 1.53677,17.62863 0.58435,9.8163 -5.73819,19.09957 -5.76015,28.93322 -0.029,12.98086 5.20825,25.43791 7.43298,38.22674 0.562,3.23064 1.6354,7.1541 1.26345,10.85616 1.91695,5.41613 0.51034,2.41845 1.75683,6.54527 0.73925,1.50126 2.25528,2.67103 1.60808,6.58137 -0.2383,1.43979 -1.04025,4.25746 -2.50465,5.74911 -4.87428,4.96497 -14.34449,3.49859 -18.97902,8.68807 -6.15698,6.89423 -7.07993,16.50689 -8.62918,26.35311 -3.68465,16.95037 -2.94684,29.53164 4.75718,45.21987 3.76821,7.42669 6.66794,13.72513 11.05838,19.9231 6.19673,8.74791 11.79264,16.97372 21.34932,24.05275"
     id="path2206"
     inkscape:connector-curvature="0"
     sodipodi:nodetypes="csaaassaaaaaasssssascccscaaaaaaaaasssaacccsssssasccsaaccac" /><path
     style="fill:#ffffff;fill-opacity:1;fill-rule:evenodd;stroke:#000000;stroke-width:1px;stroke-linecap:butt;stroke-linejoin:miter;stroke-opacity:1"
     d="m 267.82629,847.75275 7.9639,-0.79639 11.68039,5.0438 c 0,0 5.57474,-1.06185 9.29122,-1.06185 3.71649,0 14.33503,-1.85825 14.33503,-1.85825 0,0 14.86595,0 15.92781,0 1.06185,0 9.02576,0.53093 12.21132,3.71649 3.18556,3.18556 5.0438,9.02576 5.0438,9.02576 v 4.51288 c 0,0 -5.30927,1.06185 -10.08761,3.71649 -4.77834,2.65463 -7.43298,4.24741 -8.76029,4.24741 -1.32732,0 -9.55669,0 -9.55669,0 0,0 -6.37112,2.65464 -6.37112,4.77834 0,2.12371 2.38917,8.7603 3.71649,11.6804 1.32732,2.92009 7.9639,10.35307 7.9639,10.35307 0,0 7.69844,2.12371 9.82215,3.18556 2.12371,1.06186 2.9201,0.53093 3.71649,2.12371 0.79639,1.59278 4.24741,6.90205 2.65463,11.41493 -1.59278,4.51288 -1.32731,6.37112 -1.85824,7.9639 -0.53093,1.59278 -0.79639,5.30927 -0.79639,5.30927 0,0 -0.79639,2.38917 2.9201,4.77834 3.71648,2.38917 8.22936,2.65464 10.35307,3.71649 2.12371,1.06186 3.45103,2.38917 3.71649,3.71649 0.26546,1.32732 0.79639,6.37112 1.06185,10.08761 0.26547,3.71649 0,6.10566 0.53093,9.02576 0.53093,2.9201 0.26546,6.37112 1.06185,7.69844 0.79639,1.32732 4.51288,3.45102 8.49483,2.12371 3.98196,-1.32732 10.88401,-6.10566 10.88401,-6.10566 0,0 1.85824,0 4.24741,4.24741 2.38917,4.24742 5.04381,8.22937 3.98195,12.21132 -1.06185,3.98195 -3.71648,8.22937 -6.10566,10.61854 -2.38917,2.38917 -14.60049,4.51288 -14.60049,4.51288 0,0 -7.16751,-5.30927 -12.21132,-10.08761 -5.0438,-4.77834 -11.14946,-24.6881 -11.68039,-26.01542 -0.53092,-1.32732 -4.24741,-6.90205 -7.69844,-12.21132 -3.45102,-5.30927 -6.90205,-11.14947 -9.29122,-13.27317 -2.38917,-2.12371 -18.31698,-15.39688 -18.31698,-15.39688 l -21.50254,-22.29893 -3.98195,-7.16752 c 0,0 -2.12371,-5.30927 -3.18556,-6.10566 -1.06185,-0.79639 -14.33503,-4.24741 -14.33503,-4.24741 0,0 0,-9.02576 0,-11.41493 0,-2.38917 0,-10.08761 0,-11.41493 0,-1.32732 2.12371,-6.63659 3.45103,-7.9639 1.32731,-1.32732 5.30927,-2.38917 5.30927,-2.38917 z"
     id="path2208"
     inkscape:connector-curvature="0" /></g><g
   inkscape:groupmode="layer"
   id="layer14"
   inkscape:label="languages"
   style="display:inline"
   transform="translate(25.647571,320.31027)"><path
     style="opacity:0.69100001;fill:#000080;fill-opacity:1;fill-rule:evenodd;stroke:none;stroke-width:1px;stroke-linecap:butt;stroke-linejoin:miter;stroke-opacity:1;filter:url(#filter2306)"
     d="m 403.45019,825.91409 c 41.07304,1.08082 79.42944,9.123 109.24781,39.04389 l 24.40243,22.90074 -15.76773,102.49021 -3.75422,35.28967 -31.91087,0.7508 -7.50844,-25.9041 -27.27699,-15.02791 -21.15245,-10.98615 -16.51857,-6.38217 1.87711,-19.14652 -6.20781,-14.44041 -20.69375,-4.78939 -11.01606,-20.94036 c 3.96772,-10.68905 -11.54114,-29.77622 -20.58057,-38.46417"
     id="path2211"
     inkscape:connector-curvature="0"
     sodipodi:nodetypes="ccccccccccccccc" /><path
     style="opacity:0.69100001;fill:#00ffff;fill-opacity:1;fill-rule:evenodd;stroke:none;stroke-width:1px;stroke-linecap:butt;stroke-linejoin:miter;stroke-opacity:1;filter:url(#filter2302)"
     d="m 246.52378,734.68653 48.80487,-18.7711 c 0,0 75.83524,-2.25253 78.08778,-1.87711 2.25253,0.37543 42.79811,13.13977 45.05064,13.5152 2.25253,0.37542 79.96489,28.15665 79.96489,28.15665 l 19.52194,10.88724 51.80824,15.76772 23.27617,2.62796 -31.91087,31.91087 -30.78461,13.89061 -3.3788,4.88049 9.38555,42.04727 -57.81499,-43.92438 c 0,0 -43.17353,-13.89062 -44.67522,-13.89062 -1.50169,0 -30.40918,6.00676 -30.40918,6.00676 l -21.02364,7.13301 c 0,0 -14.64145,23.27617 -15.3923,25.5287 -0.75084,2.25253 -24.40243,0 -24.40243,0 0,0 -1.50169,-39.04389 -3.75422,-42.04726 -2.25253,-3.00338 -25.90412,-36.41594 -28.53207,-39.41932 -2.62796,-3.00337 -29.28292,-20.64821 -30.78461,-20.64821 -1.50169,0 -34.1634,-12.76435 -34.1634,-12.76435 l -2.62796,-3.00337 z"
     id="path2213"
     inkscape:connector-curvature="0" /><path
     style="opacity:0.69100001;fill:#008000;fill-opacity:1;fill-rule:evenodd;stroke:none;stroke-width:1px;stroke-linecap:butt;stroke-linejoin:miter;stroke-opacity:1;filter:url(#filter2298)"
     d="m 236.76281,461.00388 54.06077,0.75084 81.09116,-1.50168 42.79811,-1.87711 40.17015,0.75084 28.53208,6.00675 9.76097,3.75422 1.87711,17.64484 1.50169,7.88386 -55.56246,-1.12627 -30.78461,-0.75084 c 0,0 -38.66846,7.88386 -41.29642,7.88386 -2.62795,0 -31.53545,6.38218 -31.53545,6.38218 l -35.66509,9.01013 -46.92775,31.16002 -15.01688,9.01013 c 0,0 -8.25929,-59.6921 -7.50844,-61.19379 0.75084,-1.50169 0.75084,-14.64146 0.75084,-17.64483 0,-3.00338 3.75422,-16.14315 3.75422,-16.14315 z"
     id="path2215"
     inkscape:connector-curvature="0" /><path
     style="opacity:0.69100001;fill:#008080;fill-opacity:1;fill-rule:evenodd;stroke:none;stroke-width:1px;stroke-linecap:butt;stroke-linejoin:miter;stroke-opacity:1;filter:url(#filter2294)"
     d="m 550.2402,519.56972 c 0,0 -6.7576,-21.39906 -7.88386,-24.02701 -1.12627,-2.62796 -7.88387,-19.14653 -7.88387,-19.14653 l -3.00337,-9.38555 23.65158,-2.25253 c 0,0 23.27617,7.88386 25.15328,8.63471 1.87711,0.75084 27.03039,15.3923 29.28292,16.14314 2.25253,0.75085 21.39905,11.63809 23.65159,13.13978 2.25253,1.50168 14.64145,4.12964 17.26941,5.2559 2.62795,1.12627 30.40918,4.88049 33.78798,6.00676 3.3788,1.12626 16.51857,3.00337 16.51857,3.00337 l 16.89399,31.53545 c 0,0 5.63133,17.64484 6.7576,19.89737 1.12626,2.25253 9.38555,18.7711 9.38555,18.7711 0,0 6.38217,9.38555 7.50844,10.88724 1.12626,1.50169 10.13639,11.26266 11.63808,13.51519 1.50169,2.25253 14.26604,16.51857 14.26604,16.51857 0,0 1.50169,16.51857 1.12626,18.7711 -0.37542,2.25253 -6.38217,10.1364 -9.01013,13.89062 -2.62795,3.75422 -14.64145,13.13977 -18.02025,15.76772 -3.3788,2.62796 -22.90075,9.01013 -22.90075,9.01013 l -11.26266,4.88049 c 0,0 -16.14314,9.38555 -18.02025,11.63808 -1.87711,2.25253 -18.7711,12.0135 -22.1499,13.51519 -3.3788,1.50169 -19.89737,6.7576 -21.39906,7.88386 -1.50169,1.12627 -10.13639,8.25929 -10.13639,8.25929 l -10.1364,14.26604 -12.38892,9.38555 -2.25254,4.12964 -13.51519,11.63808 -4.12964,13.89062 -81.46658,-23.65159 -37.16678,-14.26604 -57.81499,-21.02363 -32.2863,-8.25929 -26.27954,-4.50506 c 0,0 -36.04051,-3.00338 -39.04389,-3.00338 -3.00337,0 -29.65834,9.01013 -32.66171,9.01013 -3.00338,0 -33.03714,11.63809 -36.41594,13.51519 -3.3788,1.87711 -13.13977,4.12965 -13.13977,4.12965 l -24.40243,-21.02364 1.50169,-13.89061 -0.37543,-25.90412 16.894,2.25253 12.76434,2.25253 c 0,0 2.25254,-3.37879 0.75085,-5.63133 -1.50169,-2.25253 -13.51519,-16.51857 -13.51519,-16.51857 0,0 -13.5152,-20.27278 -13.89062,-21.77447 -0.37542,-1.50169 -3.3788,-19.89737 -3.3788,-22.90075 0,-3.00337 0.37542,-23.65158 0.37542,-26.65496 0,-3.00338 2.25254,-16.14315 2.25254,-16.14315 l 3.00337,-7.88386 21.02364,-7.13302 14.64145,-7.50844 22.1499,-13.51519 21.15246,-14.75924 31.03121,-14.14826 c 0,0 27.4058,-2.25253 28.90749,-2.25253 1.50169,0 24.40243,-4.50506 24.40243,-4.50506 0,0 21.39905,-9.38555 28.15665,-6.7576 6.7576,2.62795 36.41594,1.87711 37.91763,1.87711 h 39.41931 9.01013 l 6.7576,21.39906 7.50844,16.89399 15.76772,9.38555 14.64146,-8.63471 4.88049,-6.38217 z"
     id="path2217"
     inkscape:connector-curvature="0"
     sodipodi:nodetypes="cccccccccccccccsccccccssccccccccccccsscccccccccssscccccccscsscccccccc" /><path
     style="opacity:0.69100001;fill:#00ff00;fill-opacity:1;fill-rule:evenodd;stroke:none;stroke-width:1px;stroke-linecap:butt;stroke-linejoin:miter;stroke-opacity:1;filter:url(#filter2290)"
     d="m 233.75943,432.84723 31.16003,-15.76773 39.79474,-12.38892 49.18028,3.00337 c 0,0 43.54896,7.13302 45.05064,7.88387 1.50169,0.75084 58.19042,12.38892 59.6921,13.13977 1.50169,0.75084 22.52533,11.63808 26.65497,11.63808 4.12964,0 20.27279,4.50506 20.27279,4.50506 l 12.38892,12.76435 -17.26941,3.00338 -3.75422,6.75759 -13.51519,-2.25253 -28.53208,-6.00675 -49.18028,0.37542 c 0,0 -37.16678,0.37542 -38.66847,0.37542 -1.50169,0 -46.17691,0.75085 -46.17691,0.75085 0,0 -38.66847,0 -41.67184,0 -3.00338,0 -42.42269,0.37542 -42.42269,0.37542 z"
     id="path2219"
     inkscape:connector-curvature="0" /><path
     style="opacity:0.69100001;fill:#808000;fill-opacity:1;fill-rule:evenodd;stroke:none;stroke-width:1px;stroke-linecap:butt;stroke-linejoin:miter;stroke-opacity:1;filter:url(#filter2286)"
     d="m 233.75943,432.84723 -8.25928,-13.13977 6.7576,-13.13977 12.76434,-12.38893 58.19042,-7.13302 18.39568,-21.77448 15.76772,-35.66509 13.89062,-32.66171 8.6347,-6.00676 96.10804,27.78123 35.28967,-12.38892 59.6921,-24.02701 75.08441,-41.67185 c 0,0 38.29304,-17.26941 40.54558,-17.64483 2.25253,-0.37542 60.44294,-22.90074 63.44632,-22.90074 3.00337,0 37.5422,-12.76435 39.04389,-13.13978 1.50169,-0.37542 20.64821,-6.38217 20.64821,-6.38217 l -22.1499,66.4497 c 0,0 -10.51182,31.91087 -10.88724,33.41256 -0.37542,1.50169 -12.38893,35.66509 -12.38893,35.66509 0,0 -13.89061,16.51857 -16.14314,18.39568 -2.25254,1.87711 -20.27279,13.89061 -21.77448,15.3923 -1.50169,1.50169 -16.51857,11.63808 -16.51857,11.63808 0,0 -12.38893,4.12965 -13.89061,4.88049 -1.50169,0.75084 -17.64484,6.00675 -19.14653,7.50844 -1.50169,1.50169 -14.26603,14.26604 -15.3923,16.14315 -1.12627,1.87711 -3.75422,12.38893 -3.75422,13.89061 0,1.50169 -1.50169,13.89062 -1.50169,13.89062 0,0 22.52532,39.04389 23.65159,40.54558 1.12626,1.50168 21.39905,27.78123 21.39905,27.78123 0,0 8.25929,18.02025 9.38555,19.52194 1.12627,1.50169 10.1364,11.26266 10.1364,11.26266 l -60.06752,-13.51519 -23.65159,-8.63471 c 0,0 -34.91425,-21.39905 -36.41594,-22.1499 -1.50169,-0.75084 -18.39568,-9.01013 -18.39568,-9.01013 l -19.52194,0.75085 -11.26266,2.62795 -13.5152,-9.38555 -12.38892,-12.76435 -33.03714,-9.01012 -37.91762,-13.89062 -75.45983,-14.64146 -35.66509,-3.3788 c 0,0 -11.26266,-0.37541 -18.7711,0.75085 -7.50844,1.12626 -37.54221,7.50844 -37.54221,7.50844 l -19.89736,10.51181 z"
     id="path2221"
     inkscape:connector-curvature="0" /><path
     style="opacity:0.69100001;fill:#800000;fill-opacity:1;fill-rule:evenodd;stroke:none;stroke-width:1px;stroke-linecap:butt;stroke-linejoin:miter;stroke-opacity:1;filter:url(#filter2282)"
     d="m 245.02209,394.17876 c 0,0 -15.688,-14.43809 -15.688,-17.09272 0,-2.65464 21.23707,-26.54635 24.42263,-26.54635 3.18556,0 15.39688,2.12371 15.92781,-1.06185 0.53093,-3.18557 -0.53093,-26.01542 -3.71649,-27.6082 -3.18556,-1.59278 -27.07727,-17.52059 -30.79376,-20.17523 -3.71649,-2.65463 -47.78342,-23.36078 -50.43806,-24.95356 -2.65463,-1.59278 -18.05151,-15.92781 -18.58244,-19.11337 -0.53092,-3.18556 -2.65463,-12.21132 -2.12371,-15.39688 0.53093,-3.18556 2.12371,-9.02576 8.49484,-12.21132 6.37112,-3.18556 34.51024,-13.27317 34.51024,-13.27317 l 11.6804,-7.43298 c 0,0 15.9278,11.68039 20.17522,14.86595 4.24742,3.18557 15.92781,7.43298 15.92781,7.43298 l 3.71649,1.06185 c 0,0 -1.06186,-18.58244 -2.65464,-21.768 -1.59278,-3.18556 -7.43298,-16.45873 -10.08761,-19.11337 -2.65463,-2.65463 -15.39688,-15.92781 -22.82986,-18.58244 -7.43297,-2.65463 -20.17522,-12.21132 -20.17522,-12.21132 l -9.55669,-10.61854 -14.33502,-4.24741 11.14946,-6.90205 24.42264,-18.58244 29.20098,-6.90205 c 0,0 22.82986,-13.8041 26.54635,-16.458739 3.71649,-2.654635 15.92781,-15.396881 15.92781,-15.396881 l 22.82985,-49.376203 c 0,0 14.33503,-12.742246 17.52059,-12.742246 3.18556,0 31.85562,-1.061854 31.85562,-1.061854 L 383.30289,0.12792533 c 0,0 16.45874,-16.98966133 23.36078,-21.23707633 6.90205,-4.247416 21.76801,-17.520588 27.07728,-15.927808 5.30927,1.592781 10.08761,2.654635 10.08761,5.309269 0,2.654635 -2.12371,28.1391269 -6.90205,34.5102499 -4.77834,6.371123 -24.95357,44.0669341 -26.54635,47.2524951 -1.59278,3.185562 -12.74224,28.670054 -12.74224,28.670054 0,0 -16.98966,25.484491 -19.11337,28.139131 -2.12371,2.65463 -8.49483,14.33502 -14.86596,24.95356 -6.37112,10.61854 -20.17522,33.97932 -21.768,40.88137 -1.59278,6.90205 -6.90205,22.82986 -6.90205,28.67006 0,5.84019 8.49483,56.80918 9.55669,58.93288 1.06185,2.12371 15.356,30.65559 15.356,30.65559 l -19.60342,28.80823 -13.27317,35.5721 -14.33503,22.82986 c 0,0 -18.58244,10.08761 -22.29893,10.08761 -3.71649,0 -45.36859,5.94326 -45.36859,5.94326 z"
     id="path2223"
     inkscape:connector-curvature="0" /><path
     style="opacity:0.69100001;fill:#ff0000;fill-opacity:1;fill-rule:evenodd;stroke:none;stroke-width:1px;stroke-linecap:butt;stroke-linejoin:miter;stroke-opacity:1;filter:url(#filter2278)"
     d="m 359.90123,290.9377 88.57685,28.00402 59.97911,-15.35915 77.4555,-39.5996 62.8003,-32.8641 c 42.64007,-18.4522 67.94752,-31.13563 109.95523,-41.77668 l 29.20098,-15.60116 c 0,0 1.59278,-28.13913 -0.53093,-35.04118 -2.1237,-6.90205 -14.33502,-30.26283 -15.9278,-39.288591 -1.59278,-9.025758 -8.49483,-86.541088 -8.49483,-86.541088 l -1.06186,-26.546345 c 0,0 -53.09269,-32.917469 -61.05659,-36.103031 -7.96391,-3.185561 -54.68548,-16.458734 -57.34011,-16.458734 -2.65464,0 -44.06693,-7.432977 -48.84528,-7.963904 -4.77834,-0.530927 -24.95356,-8.49483 -32.38654,-3.716488 -7.43298,4.778342 -32.38654,18.051515 -32.38654,18.051515 0,0 -14.33503,7.432977 -21.23708,10.087611 -6.90205,2.654635 -52.56176,12.211319 -52.56176,12.211319 0,0 -18.05152,4.247416 -18.58244,7.432977 -0.53093,3.185562 -3.71649,24.9535652 -4.77835,28.6700536 -1.06185,3.7164884 -18.05151,38.7576644 -18.05151,40.8813724 0,2.123708 -21.80574,43.6271 -22.86759,46.281734 -17.59329,25.175279 -45.94972,56.867479 -51.75756,82.513589 -10.31629,36.36114 -4.07356,69.47476 4.81608,105.65446 0.53092,4.77834 15.08272,17.0714 15.08272,17.0714"
     id="path2225"
     inkscape:connector-curvature="0"
     sodipodi:nodetypes="ccccccccsccsssscscccscccc" /></g><g
   inkscape:groupmode="layer"
   id="layer11"
   inkscape:label="labels"
   style="display:inline"
   transform="translate(25.647571,320.31027)"><text
     xml:space="preserve"
     style="font-style:normal;font-variant:normal;font-weight:normal;font-stretch:normal;font-size:64px;line-height:125%;font-family:Arimo;-inkscape-font-specification:Arimo;font-variant-ligatures:normal;font-variant-caps:normal;font-variant-numeric:normal;font-feature-settings:normal;text-align:start;letter-spacing:0px;word-spacing:0px;writing-mode:lr-tb;text-anchor:start;fill:#000000;fill-opacity:1;stroke:none;stroke-width:1px;stroke-linecap:butt;stroke-linejoin:miter;stroke-opacity:1"
     x="43.795887"
     y="9.3711891"
     id="text2312"><tspan
       sodipodi:role="line"
       id="tspan2310"
       x="43.795887"
       y="9.3711891">Montenegro</tspan></text>
<text
     xml:space="preserve"
     style="font-style:normal;font-variant:normal;font-weight:normal;font-stretch:normal;font-size:64px;line-height:125%;font-family:Arimo;-inkscape-font-specification:Arimo;font-variant-ligatures:normal;font-variant-caps:normal;font-variant-numeric:normal;font-feature-settings:normal;text-align:start;letter-spacing:0px;word-spacing:0px;writing-mode:lr-tb;text-anchor:start;fill:#000000;fill-opacity:1;stroke:none;stroke-width:1px;stroke-linecap:butt;stroke-linejoin:miter;stroke-opacity:1"
     x="483.79053"
     y="899.87219"
     id="text2320"><tspan
       sodipodi:role="line"
       id="tspan2318"
       x="483.79053"
       y="899.87219">Greece</tspan></text>
<text
     xml:space="preserve"
     style="font-style:normal;font-variant:normal;font-weight:normal;font-stretch:normal;font-size:64px;line-height:125%;font-family:Arimo;-inkscape-font-specification:Arimo;font-variant-ligatures:normal;font-variant-caps:normal;font-variant-numeric:normal;font-feature-settings:normal;text-align:start;letter-spacing:0px;word-spacing:0px;writing-mode:lr-tb;text-anchor:start;fill:#000000;fill-opacity:1;stroke:none;stroke-width:1px;stroke-linecap:butt;stroke-linejoin:miter;stroke-opacity:1"
     x="306.59131"
     y="598.0329"
     id="text2324"><tspan
       sodipodi:role="line"
       id="tspan2322"
       x="306.59131"
       y="598.0329">Albania</tspan></text>
<text
     xml:space="preserve"
     style="font-style:normal;font-variant:normal;font-weight:normal;font-stretch:normal;font-size:64px;line-height:125%;font-family:Arimo;-inkscape-font-specification:Arimo;font-variant-ligatures:normal;font-variant-position:normal;font-variant-caps:normal;font-variant-numeric:normal;font-variant-alternates:normal;font-feature-settings:normal;text-indent:0;text-align:start;text-decoration:none;text-decoration-line:none;text-decoration-style:solid;text-decoration-color:#000000;letter-spacing:0px;word-spacing:0px;text-transform:none;writing-mode:lr-tb;direction:ltr;text-orientation:mixed;dominant-baseline:auto;baseline-shift:baseline;text-anchor:start;white-space:normal;shape-padding:0;opacity:1;vector-effect:none;fill:#000000;fill-opacity:1;stroke:none;stroke-width:1px;stroke-linecap:butt;stroke-linejoin:miter;stroke-miterlimit:4;stroke-dasharray:none;stroke-dashoffset:0;stroke-opacity:1"
     x="461.2652"
     y="93.465721"
     id="text2328"><tspan
       sodipodi:role="line"
       id="tspan2326"
       x="461.2652"
       y="93.465721">Kosovo</tspan></text>
<text
     xml:space="preserve"
     style="font-style:normal;font-variant:normal;font-weight:normal;font-stretch:normal;font-size:64px;line-height:125%;font-family:Arimo;-inkscape-font-specification:Arimo;font-variant-ligatures:normal;font-variant-position:normal;font-variant-caps:normal;font-variant-numeric:normal;font-variant-alternates:normal;font-feature-settings:normal;text-indent:0;text-align:start;text-decoration:none;text-decoration-line:none;text-decoration-style:solid;text-decoration-color:#000000;letter-spacing:0px;word-spacing:0px;text-transform:none;writing-mode:lr-tb;direction:ltr;text-orientation:mixed;dominant-baseline:auto;baseline-shift:baseline;text-anchor:start;white-space:normal;shape-padding:0;display:inline;opacity:1;vector-effect:none;fill:#000000;fill-opacity:1;stroke:none;stroke-width:1px;stroke-linecap:butt;stroke-linejoin:miter;stroke-miterlimit:4;stroke-dasharray:none;stroke-dashoffset:0;stroke-opacity:1"
     x="525.83777"
     y="431.34552"
     id="text2316"><tspan
       sodipodi:role="line"
       id="tspan2314"
       x="525.83777"
       y="431.34552">North Macedonia</tspan></text>
</g><g
   inkscape:groupmode="layer"
   id="layer15"
   inkscape:label="lakes"
   style="display:inline"
   transform="translate(25.647571,320.31027)"><path
     style="fill:#c9eaf1;fill-opacity:1;fill-rule:evenodd;stroke:#00009e;stroke-width:1px;stroke-linecap:butt;stroke-linejoin:miter;stroke-opacity:1"
     d="m 495.8594,465.75083 c -1.15912,10.94692 0.13979,22.20047 2.65463,32.91747 2.17726,9.27839 5.5759,18.45926 10.61854,26.54634 3.91162,6.27322 7.63044,14.94168 14.86595,16.45874 3.79878,0.79648 7.5885,-2.35265 10.61854,-4.77834 6.21711,-4.97709 13.36197,-11.20913 14.33503,-19.11337 1.33734,-10.86333 -8.78984,-20.05603 -12.74225,-30.26284 -3.25423,-8.40379 -2.54808,-19.21923 -9.02576,-25.48449 -5.47147,-5.29204 -14.23098,-7.96786 -21.768,-6.90205 -3.15904,0.44672 -6.06593,2.74474 -7.9639,5.30927 -1.09916,1.48518 -1.39822,3.47186 -1.59278,5.30927 z"
     id="path2228"
     inkscape:connector-curvature="0"
     sodipodi:nodetypes="aaaaaaaaaaa" /><path
     style="fill:#c9eaf1;fill-opacity:1;fill-rule:evenodd;stroke:#00009e;stroke-width:1px;stroke-linecap:butt;stroke-linejoin:miter;stroke-opacity:1"
     d="m 590.89531,526.80743 c -3.56737,5.14046 -3.82787,12.43639 -2.65463,18.58244 1.07016,5.60606 3.90059,11.47978 8.49483,14.86595 5.25371,3.87224 12.72875,5.60104 19.11337,4.24742 4.95157,-1.0498 9.71997,-4.61971 12.21132,-9.02576 3.6751,-6.49953 3.54262,-14.96838 2.12371,-22.29893 -1.09805,-5.6729 -3.26205,-12.0383 -7.96391,-15.39688 -3.93069,-2.80773 -9.63909,-3.2559 -14.33502,-2.12371 -4.43998,1.07048 -7.27939,5.53864 -11.14947,7.9639 -1.87903,1.17753 -4.57592,1.36378 -5.8402,3.18557 z"
     id="path2230"
     inkscape:connector-curvature="0"
     sodipodi:nodetypes="aaaaaaaaaa" /><path
     style="fill:#c9eaf1;fill-opacity:1;fill-rule:evenodd;stroke:#00009e;stroke-width:1px;stroke-linecap:butt;stroke-linejoin:miter;stroke-opacity:1"
     d="m 172.52491,153.03488 c -0.30627,2.51533 2.60215,4.43622 3.18556,6.90205 1.26382,5.34162 0.28125,10.97531 0.53092,16.45873 0.27417,6.02134 -2.25627,13.01945 1.06186,18.05152 3.70337,5.61631 11.63533,7.00323 18.05151,9.02575 4.60703,1.45224 9.90664,0.1942 14.33503,2.12371 5.19434,2.26324 8.69948,7.27418 13.27317,10.61854 5.15082,3.76637 10.34247,7.533 15.92781,10.61854 4.92309,2.71969 10.00261,5.30974 15.39688,6.90205 2.23252,0.65901 5.13537,2.57752 6.90205,1.06185 4.70114,-4.0332 2.28843,-12.82653 0,-18.58244 -3.23765,-8.14341 -11.52988,-13.25966 -18.05151,-19.11337 -9.58813,-8.60615 -20.25892,-15.94357 -30.79377,-23.36078 -3.97353,-2.79762 -8.97688,-4.33707 -12.21132,-7.96391 -2.10712,-2.36275 -2.25712,-6.03287 -4.24741,-8.49483 -2.13724,-2.64375 -4.94304,-4.81176 -7.9639,-6.37112 -3.43461,-1.77293 -7.46718,-4.36055 -11.14947,-3.18556 -2.15914,0.68896 -3.97347,3.05949 -4.24741,5.30927 z"
     id="path2232"
     inkscape:connector-curvature="0"
     sodipodi:nodetypes="aaaaaaaaaaaaaaaaaa" /></g></svg>